HIERARCHY
ROOT Hips
{
	OFFSET 2.163856 112.167007 -7.466990
	CHANNELS 6 Xposition Yposition Zposition Xrotation Yrotation Zrotation
	JOINT Chest
	{
		OFFSET 0.933541 13.491737 1.804355
		CHANNELS 3 Xrotation Yrotation Zrotation
		JOINT Chest2
		{
			OFFSET 0.918407 21.273476 2.379630
			CHANNELS 3 Xrotation Yrotation Zrotation
			JOINT Chest3
			{
				OFFSET 1.561860 14.825897 -0.757025
				CHANNELS 3 Xrotation Yrotation Zrotation
				JOINT Neck
				{
					OFFSET 1.330452 17.211166 0.788551
					CHANNELS 3 Xrotation Yrotation Zrotation
					JOINT Head
					{
						OFFSET -0.546645 10.414459 1.033455
						CHANNELS 3 Xrotation Yrotation Zrotation
						End Site
						{
							OFFSET -0.514138 10.422348 0.968480
						}
					}
				}
				JOINT LeftCollar
				{
					OFFSET 4.371461 12.770813 4.427286
					CHANNELS 3 Xrotation Yrotation Zrotation
					JOINT LeftUpArm
					{
						OFFSET 16.515644 4.510269 -3.923027
						CHANNELS 3 Xrotation Yrotation Zrotation
						JOINT LeftLowArm
						{
							OFFSET 13.705309 26.852280 15.193646
							CHANNELS 3 Xrotation Yrotation Zrotation
							JOINT LeftHand
							{
								OFFSET 7.705673 28.326843 6.257719
								CHANNELS 3 Xrotation Yrotation Zrotation
								End Site
								{
									OFFSET 1.684135 6.190994 1.367668
								}
							}
						}
					}
				}
				JOINT RightCollar
				{
					OFFSET -3.757456 13.493668 2.368819
					CHANNELS 3 Xrotation Yrotation Zrotation
					JOINT RightUpArm
					{
						OFFSET -13.150561 -3.673981 -11.048122
						CHANNELS 3 Xrotation Yrotation Zrotation
						JOINT RightLowArm
						{
							OFFSET -17.787270 -27.597412 -7.856894
							CHANNELS 3 Xrotation Yrotation Zrotation
							JOINT RightHand
							{
								OFFSET -18.541496 -23.601646 -0.361221
								CHANNELS 3 Xrotation Yrotation Zrotation
								End Site
								{
									OFFSET -4.052414 -5.158386 -0.078955
								}
							}
						}
					}
				}
			}
		}
	}
	JOINT LeftUpLeg
	{
		OFFSET 9.022293 -1.185738 4.196594
		CHANNELS 3 Xrotation Yrotation Zrotation
		JOINT LeftLowLeg
		{
			OFFSET -10.035563 -45.584724 8.081520
			CHANNELS 3 Xrotation Yrotation Zrotation
			JOINT LeftFoot
			{
				OFFSET -8.394553 -42.630157 -10.619320
				CHANNELS 3 Xrotation Yrotation Zrotation
				JOINT LeftToe
				{
					OFFSET -1.233223 -19.326723 13.583694
					CHANNELS 3 Xrotation Yrotation Zrotation
					End Site
					{
						OFFSET 0.788306 -6.436330 22.748871
					}
				}
			}
		}
	}
	JOINT RightUpLeg
	{
		OFFSET -9.022310 1.185539 -4.196621
		CHANNELS 3 Xrotation Yrotation Zrotation
		JOINT RightLowLeg
		{
			OFFSET -9.232457 -46.350128 -3.230751
			CHANNELS 3 Xrotation Yrotation Zrotation
			JOINT RightFoot
			{
				OFFSET 17.856628 -34.197792 -22.632507
				CHANNELS 3 Xrotation Yrotation Zrotation
				JOINT RightToe
				{
					OFFSET 4.816572 -23.121822 1.318466
					CHANNELS 3 Xrotation Yrotation Zrotation
					End Site
					{
						OFFSET -6.154411 -19.286684 12.235325
					}
				}
			}
		}
	}
}
MOTION
Frames: 11
Frame Time: 0.033333
-0.161348 106.130424 -1.111722 -6.669170 24.757919 7.485790 -4.122246 -1.745140 -4.103808 5.097954 1.544271 1.665621 -6.790896 -9.524725 -2.196909 6.197409 11.998312 -3.941506 -0.000000 0.000002 -0.000000 12.414564 1.751834 -22.279377 3.520558 12.244584 -39.812466 13.889849 -5.155093 -10.631338 0.000001 0.000000 0.000001 10.171624 -5.496872 -12.858148 10.313894 6.270091 -45.013095 13.573981 -2.426214 6.289907 -0.000001 -0.000001 -0.000001 14.558768 -2.501120 15.322221 -14.865886 5.885646 -0.133645 -18.725151 -23.241771 -17.463102 0.000001 0.000000 -0.000000 7.205779 2.625597 1.160213 -21.019501 10.364179 -27.514194 -15.277088 8.520254 -18.499535 -0.000003 -0.000003 0.000002 
56.854610 99.945351 -1.113387 2.279580 2.946365 -6.606276 5.964225 -0.974344 -1.101025 -2.228074 -6.395276 11.777783 -6.226969 -24.223671 -15.428999 10.475351 4.085584 5.742155 -0.000001 -0.000007 -0.000001 23.473837 -30.604476 -11.737621 38.230427 -40.716151 -51.244406 60.406125 -5.895741 8.940359 0.000000 -0.000003 0.000001 7.937087 -7.414430 -19.366404 29.295071 22.078761 -69.329917 21.424427 22.401041 -122.251206 -0.000001 -0.000000 -0.000002 -11.533594 -1.078597 36.730398 44.390421 -28.752542 -29.215315 -1.162257 -14.273888 -9.668820 0.000001 0.000000 -0.000000 -24.268239 1.101718 13.316048 8.730042 5.335346 -9.051147 -19.069968 -0.425424 -29.284757 -0.000001 -0.000004 -0.000001 
56.847401 99.994858 -1.120430 2.867671 1.812798 -6.565119 5.961839 -0.958867 -1.327437 -3.262704 -6.738324 11.935214 -5.462564 -24.175624 -15.627787 10.031075 4.094644 5.852668 0.000000 0.000000 0.000000 23.778322 -30.902132 -10.564977 39.291302 -42.133658 -48.567064 57.412815 -5.464002 7.141363 0.000001 0.000001 -0.000000 8.150697 -7.369143 -19.818301 29.492480 23.304011 -70.224235 21.140564 23.391484 -120.563002 0.000000 -0.000000 -0.000001 -11.290117 -1.045885 36.909762 43.579578 -28.104804 -29.507572 -1.858031 -14.372028 -9.835611 -0.000003 0.000002 0.000001 -23.926909 0.722969 14.156886 8.404619 5.375299 -10.664184 -20.410716 0.405494 -28.654669 -0.000003 0.000003 -0.000001 
56.838974 100.080566 -1.126989 3.463256 0.652550 -6.169175 4.189809 -0.759887 -1.659658 -1.588717 -6.150546 11.725844 -6.693460 -24.890157 -15.387371 10.678500 4.697103 5.066917 -0.000001 -0.000002 -0.000001 23.557679 -30.451941 -10.251401 40.130066 -42.834876 -46.258798 55.563251 -5.167334 5.596456 0.000002 -0.000000 -0.000001 8.262623 -7.350482 -20.520052 29.627298 23.766186 -70.770759 20.772962 23.549968 -119.304444 -0.000001 -0.000000 -0.000001 -10.933679 -1.102189 36.639406 42.781187 -27.617496 -29.590405 -2.121079 -14.750615 -10.202313 0.000002 -0.000002 -0.000005 -23.026977 0.570118 14.693364 7.685442 5.507252 -12.367096 -20.714652 0.702749 -28.242520 -0.000005 -0.000002 0.000003 
56.841801 100.185158 -1.137235 3.966030 0.000719 -5.970533 2.820349 -0.643993 -1.698018 -0.186993 -5.782030 11.704648 -7.750929 -25.486810 -15.376612 11.380575 5.610942 4.079209 -0.000001 -0.000002 0.000000 23.606998 -30.630243 -9.446004 40.977283 -43.648973 -43.702730 52.589871 -4.740081 3.428577 0.000001 -0.000001 0.000002 8.421135 -7.007362 -20.936283 29.826483 23.970274 -71.832738 20.192664 24.797854 -117.225198 -0.000001 -0.000001 0.000001 -10.874494 -1.159757 36.293832 42.106750 -26.998843 -29.462482 -3.040042 -14.793179 -10.539649 0.000002 -0.000004 -0.000003 -22.660061 0.469977 14.929668 7.100061 5.533761 -13.437413 -21.291921 1.134042 -27.290215 -0.000002 -0.000003 0.000002 
56.831959 100.345413 -1.136141 4.668950 -0.944963 -5.458551 2.708818 -0.613349 -1.650814 -1.641995 -5.870297 11.158501 -6.669513 -25.706202 -15.437740 11.539862 6.000863 3.516059 0.000000 -0.000003 -0.000001 23.085368 -30.093270 -8.992014 40.890498 -43.760657 -42.163212 52.509439 -5.674723 1.569222 0.000001 0.000000 -0.000000 8.044636 -7.344380 -21.113600 29.491032 23.953076 -72.115494 19.770416 25.035244 -116.621054 -0.000001 -0.000001 -0.000001 -10.122469 -1.018628 35.762447 40.602640 -26.180793 -29.554495 -2.532972 -15.032758 -10.606245 0.000001 -0.000000 -0.000000 -21.796437 0.387905 15.080784 5.783026 5.818514 -14.935609 -21.488033 1.306477 -26.205131 -0.000003 -0.000006 -0.000000 
56.812973 100.571472 -1.123449 5.043534 -2.602484 -5.115208 2.357748 -0.481080 -1.707181 -1.720584 -5.885702 10.851174 -6.498148 -25.697216 -15.264389 11.663481 6.160128 2.573932 -0.000001 0.000000 0.000001 21.827977 -30.245836 -9.621973 38.582414 -43.826906 -44.349719 53.116725 -8.320350 -1.471197 0.000000 -0.000001 0.000004 6.958715 -7.157436 -20.914710 27.942189 24.196895 -72.457693 19.159249 27.435767 -116.710202 0.000001 0.000000 -0.000001 -9.196747 -0.788353 35.432122 39.368958 -24.947244 -29.078714 -2.429869 -15.396478 -10.892110 0.000006 -0.000001 -0.000001 -20.549823 0.121092 15.531066 4.035629 6.051573 -16.844582 -21.686730 1.765837 -23.908285 -0.000002 -0.000003 0.000001 
56.783260 100.816544 -1.103352 4.893787 -4.022679 -4.885517 2.367307 -0.462747 -1.791362 -3.897913 -6.430885 10.762995 -3.901921 -24.803951 -15.371180 10.670292 5.315950 3.113380 0.000001 -0.000003 -0.000000 21.548656 -30.527005 -9.830941 38.304462 -43.728299 -44.109365 53.243643 -9.168385 -2.544487 -0.000001 -0.000002 0.000002 6.991276 -6.683460 -21.311039 27.609202 23.526805 -72.069226 18.703505 27.705266 -116.096332 0.000000 0.000000 0.000001 -7.786854 -0.607514 35.182018 38.261777 -23.708900 -28.376386 -2.581534 -15.608697 -10.954497 0.000002 0.000001 0.000000 -19.522334 0.028111 15.876940 3.271847 6.018390 -18.362725 -22.001443 2.331704 -21.903385 -0.000007 -0.000003 0.000002 
56.758236 101.134636 -1.080047 5.170285 -5.649172 -4.528378 1.529354 -0.344570 -1.970456 -1.900757 -5.734159 10.385373 -5.442056 -25.109205 -14.906628 10.629063 5.628356 2.483111 -0.000001 -0.000003 -0.000001 21.085721 -30.103297 -10.083023 37.909790 -43.522751 -43.834026 53.064382 -9.441263 -3.732370 -0.000002 0.000001 0.000002 6.581774 -6.839827 -20.834006 27.760066 23.999196 -73.443979 18.719071 26.678015 -116.333927 0.000001 -0.000001 -0.000006 -6.743980 -0.296070 34.347573 37.433600 -22.287095 -26.049112 -2.519899 -15.660237 -10.927938 -0.000003 -0.000003 0.000000 -17.809006 -0.207048 16.117807 2.088275 6.091255 -20.248958 -22.994103 3.531324 -18.513916 -0.000001 -0.000003 0.000002 
56.721977 101.513916 -1.034503 5.318620 -6.764855 -4.476900 0.579257 -0.243177 -1.561564 -0.827192 -5.306379 9.948418 -5.924186 -25.549941 -14.635656 10.777565 5.625819 1.789361 0.000001 0.000004 -0.000002 20.286946 -30.068607 -10.533408 36.658056 -43.836420 -45.319869 54.831065 -11.257050 -5.665007 0.000001 0.000000 0.000002 6.404386 -6.084185 -21.125919 26.712865 24.438900 -73.272938 18.549233 28.999662 -115.799055 0.000000 0.000003 0.000003 -6.215128 -0.029373 33.734386 37.317596 -21.187392 -23.163128 -2.298181 -14.883185 -10.347859 0.000003 -0.000001 0.000001 -15.956983 -0.456615 16.381821 1.239767 6.358411 -22.000668 -23.782186 4.800903 -13.048598 -0.000001 -0.000003 0.000001 
56.700760 101.906296 -0.996419 5.665471 -7.146781 -4.462461 0.112897 -0.250182 -1.224053 -1.606936 -5.376622 9.617964 -5.035236 -25.788472 -14.429490 10.652315 5.536143 1.405662 -0.000000 0.000000 0.000001 19.896783 -30.065758 -10.390505 36.408091 -44.125139 -45.619592 56.862800 -12.648875 -6.406849 0.000001 -0.000002 -0.000001 6.018828 -6.232999 -20.894867 26.636642 24.738271 -73.885127 18.369056 29.095356 -115.919785 -0.000001 0.000000 -0.000001 -5.958759 -0.077734 33.181216 37.816223 -20.347005 -20.424719 -1.894401 -14.206173 -9.628538 0.000003 0.000001 -0.000002 -14.776600 -0.469091 16.523324 -0.338444 6.439087 -23.152663 -25.583717 6.171294 -8.204974 0.000002 -0.000001 -0.000002 
